<?xml version="1.0" encoding="utf-8"?>
<!-- Generator: Adobe Illustrator 23.0.1, SVG Export Plug-In . SVG Version: 6.00 Build 0)  -->
<svg version="1.1" id="Layer_1" xmlns="http://www.w3.org/2000/svg" xmlns:xlink="http://www.w3.org/1999/xlink" x="0px" y="0px"
	 viewBox="0 0 1581.7 915.6" style="enable-background:new 0 0 1581.7 915.6;" xml:space="preserve">
<style type="text/css">
	.st0{fill:none;stroke:#FF0000;stroke-linecap:round;}
</style>
<rect x="428.8" y="167.8" width="109.4" height="98.1"/>
<path id="front_outsideCutPath" vector-effect="non-scaling-stroke" class="st0" d="M226.8,674.1v62.4h566.9v-62.4H226.8z"/>
<path id="left_outsideCutPath" vector-effect="non-scaling-stroke" class="st0" d="M802.3,674.1v62.4h430.9v-62.4H802.3z"/>
<path id="top_outsideCutPath" vector-effect="non-scaling-stroke" class="st0" d="M803.8,75.2v453.5h566.9V75.2H803.8z"/>
<path id="back_outsideCutPath" vector-effect="non-scaling-stroke" class="st0" d="M226.8,603.2v62.4h566.9v-62.4H226.8z"/>
<path id="right_outsideCutPath" vector-effect="non-scaling-stroke" class="st0" d="M802.3,603.2v62.4h430.9v-62.4H802.3z"/>
<path id="bottom_outsideCutPath" vector-effect="non-scaling-stroke" class="st0" d="M163,83v453.5H730V83H163z"/>
<rect x="217.6" y="167.8" class="st0" width="7.4" height="7.4"/>
<rect x="217.6" y="309.8" class="st0" width="7.4" height="7.4"/>
<line class="st0" x1="218.4" y1="310.3" x2="218.4" y2="174.3"/>
<line class="st0" x1="218.4" y1="429.7" x2="218.4" y2="316.3"/>
<line class="st0" x1="218.4" y1="429.7" x2="297.8" y2="429.7"/>
<rect x="296.6" y="423.2" class="st0" width="7.4" height="7.4"/>
<line class="st0" x1="224.1" y1="168.6" x2="422.5" y2="168.6"/>
<line class="st0" x1="422.5" y1="259.3" x2="422.5" y2="168.6"/>
<rect x="416" y="258.5" class="st0" width="7.4" height="7.4"/>
<rect x="428.8" y="167.8" class="st0" width="7.4" height="7.4"/>
<line class="st0" x1="429.6" y1="265" x2="429.6" y2="174.3"/>
<line class="st0" x1="429.6" y1="265" x2="531.7" y2="265"/>
<rect x="530.8" y="258.5" class="st0" width="7.4" height="7.4"/>
<rect x="543.4" y="167.8" class="st0" width="7.4" height="7.4"/>
<line class="st0" x1="544.3" y1="265" x2="544.3" y2="174.3"/>
<line class="st0" x1="544.3" y1="265" x2="646.3" y2="265"/>
<rect x="645.5" y="258.5" class="st0" width="7.4" height="7.4"/>
<rect x="543.4" y="372.2" class="st0" width="7.4" height="7.4"/>
<line class="st0" x1="544.3" y1="469.4" x2="544.3" y2="378.7"/>
<line class="st0" x1="544.3" y1="469.4" x2="646.3" y2="469.4"/>
<rect x="645.5" y="462.9" class="st0" width="7.4" height="7.4"/>
<rect x="543.4" y="270" width="109.4" height="98.1"/>
<rect x="544.3" y="270" class="st0" width="7.4" height="7.4"/>
<line class="st0" x1="545.1" y1="367.2" x2="545.1" y2="276.5"/>
<line class="st0" x1="545.1" y1="367.2" x2="647.2" y2="367.2"/>
<rect x="645.5" y="360.7" class="st0" width="7.4" height="7.4"/>
</svg>
